# xmcd CD database file
#
# Track frame offsets:
#	150
#	21314
#	34312
#	48387
#	68289
#	84821
#	100184
#	111764
#	126758
#	140738
#	156740
#	173215
#	189393
#	205050
#	220338
#
# Disc length: 3130 seconds
#
# Revision: 0
# Processed by: cddbd v1.5.2PL0 Copyright (c) Steve Scherf et al.
# Submitted via: CDex 1.51
#
DISCID=d20c380f
DTITLE=Paolo Conte - Nelson
DYEAR=2010
DGENRE=Jazz
TTITLE0=Tra le tue braccia
TTITLE1=Jeeves
TTITLE2=Enfant prodige
TTITLE3=Clown
TTITLE4=Nina
TTITLE5=Galosce selvagge
TTITLE6=Storia minima
TTITLE7=C'est beau
TTITLE8=Massaggiatrice
TTITLE9=Sarah
TTITLE10=Sotto la luna bruna
TTITLE11=Suonno e' tutt'o' suonno
TTITLE12=Los amantes del mambo
TTITLE13=L'orchestrina
TTITLE14=Bodyguard for myself
EXTD=YEAR: 2010
EXTT0=
EXTT1=
EXTT2=
EXTT3=
EXTT4=
EXTT5=
EXTT6=
EXTT7=
EXTT8=
EXTT9=
EXTT10=
EXTT11=
EXTT12=
EXTT13=
EXTT14=
PLAYORDER=
